<svg xmlns="http://www.w3.org/2000/svg" version="1.1" xmlns:xlink="http://www.w3.org/1999/xlink" xmlns:svgjs="http://svgjs.dev/svgjs" width="2000" height="1247" viewBox="0 0 2000 1247"><g transform="matrix(1,0,0,1,-1.2121212121212466,0.504858299595071)"><svg viewBox="0 0 396 247" data-background-color="#ffffff" preserveAspectRatio="xMidYMid meet" height="1247" width="2000" xmlns="http://www.w3.org/2000/svg" xmlns:xlink="http://www.w3.org/1999/xlink"><g id="tight-bounds" transform="matrix(1,0,0,1,0.2400000000000091,-0.09999999999999432)"><svg viewBox="0 0 395.52 247.2" height="247.2" width="395.52"><g><svg></svg></g><g><svg viewBox="0 0 395.52 247.2" height="247.2" width="395.52"><g transform="matrix(1,0,0,1,89.5983212598425,47.215199999999996)"><svg viewBox="0 0 216.32335748031497 152.7696" height="152.7696" width="216.32335748031497"><g><svg viewBox="0 0 216.32335748031497 152.7696" height="152.7696" width="216.32335748031497"><g><svg viewBox="0 0 216.32335748031497 152.7696" height="152.7696" width="216.32335748031497"><g><svg viewBox="0 0 216.32335748031497 152.7696" height="152.7696" width="216.32335748031497"><g id="textblocktransform"><svg viewBox="0 0 216.32335748031497 152.7696" height="152.7696" width="216.32335748031497" id="textblock"><g><svg viewBox="0 0 216.32335748031497 152.7696" height="152.7696" width="216.32335748031497"><g transform="matrix(1,0,0,1,0,0)"><svg width="216.32335748031497" viewBox="0.9 -38.1 53.95 38.1" height="152.7696" data-palette-color="#61777f"><path d="M13.55-36.4L18.1-36.4 30.7 0 25.55 0 21.35-12.5 9.35-12.5 5.1 0 0.9 0 13.55-36.4ZM20.2-15.9L15.4-30.3 10.5-15.9 20.2-15.9ZM34.95-38.1L39.75-38.1 39.75-14.6 49.05-24.85 53.5-24.85 43.95-14.4 54.85 0 49.9 0 39.75-13.5 39.75 0 35.6 0 35.6-35.15 34.95-38.1Z" opacity="1" transform="matrix(1,0,0,1,0,0)" fill="#000000" class="wordmark-text-0" data-fill-palette-color="primary" id="text-0"></path></svg></g></svg></g></svg></g></svg></g></svg></g></svg></g></svg></g><g><path d="M231.762 0c68.262 0 123.6 55.338 123.6 123.6 0 68.262-55.338 123.6-123.6 123.6-30.402 0-58.24-10.976-79.769-29.183h11.148c19.26 14.022 42.974 22.294 68.621 22.295 64.458 0 116.712-52.254 116.711-116.712 0-64.458-52.254-116.712-116.711-116.712-25.647 0-49.361 8.272-68.621 22.295l-11.148 0c21.528-18.206 49.366-29.183 79.769-29.183z" fill="#000000" stroke="transparent" data-fill-palette-color="tertiary"></path></g></svg></g><defs></defs></svg><rect width="395.52" height="247.2" fill="none" stroke="none" visibility="hidden"></rect></g></svg></g></svg>